# Blender 3.6.8
# www.blender.org
mtllib eye_geograft.mtl
o Genesis9Eyes
v 2.802810 159.091995 8.402927
v 2.808730 159.046997 8.402927
v 2.826080 159.005005 8.402927
v 2.853700 158.968994 8.402927
v 2.889680 158.940994 8.402927
v 2.931570 158.923996 8.402927
v 2.976540 158.917999 8.402927
v 3.021510 158.923996 8.402927
v 3.063400 158.940994 8.402927
v 3.099380 158.968994 8.402927
v 3.127000 159.005005 8.402927
v 3.144350 159.046997 8.402927
v 3.150270 159.091995 8.402927
v 3.144350 159.136993 8.402927
v 3.127000 159.179001 8.402927
v 3.099380 159.214996 8.402927
v 3.063400 159.242996 8.402927
v 3.021510 159.259995 8.402927
v 2.976540 159.266006 8.402917
v 2.931570 159.259995 8.402927
v 2.889680 159.242996 8.402927
v 2.853700 159.214996 8.402927
v 2.826080 159.179001 8.402927
v 2.808730 159.136993 8.402927
v 2.924720 158.899002 8.406977
v 2.976540 158.891998 8.406977
v 3.149910 159.192001 8.406967
v 3.118100 159.233002 8.406967
v 2.876450 159.266006 8.406967
v 2.834980 159.233002 8.406967
v 2.803170 159.192001 8.406967
v 2.783180 159.143997 8.406977
v 3.028360 158.899002 8.406977
v 3.028360 159.285004 8.406967
v 2.976540 159.292007 8.406967
v 2.776350 159.091995 8.406977
v 2.783180 159.039993 8.406977
v 3.169900 159.039993 8.406977
v 3.176730 159.091995 8.406977
v 3.169900 159.143997 8.406977
v 2.803170 158.992004 8.406977
v 3.149910 158.992004 8.406977
v 2.834980 158.951004 8.406977
v 3.118100 158.951004 8.406977
v 2.876450 158.917999 8.406977
v 2.924720 159.285004 8.406967
v 3.076630 158.917999 8.406977
v 3.076630 159.266006 8.406967
v -2.802810 159.091995 8.402927
v -2.808730 159.046997 8.402927
v -2.826080 159.005005 8.402927
v -2.853700 158.968994 8.402927
v -2.889680 158.940994 8.402927
v -2.931570 158.923996 8.402927
v -2.976540 158.917999 8.402927
v -3.021510 158.923996 8.402927
v -3.063400 158.940994 8.402927
v -3.099380 158.968994 8.402927
v -3.127000 159.005005 8.402927
v -3.144350 159.046997 8.402927
v -3.150270 159.091995 8.402927
v -3.144350 159.136993 8.402927
v -3.127000 159.179001 8.402927
v -3.099380 159.214996 8.402927
v -3.063400 159.242996 8.402927
v -3.021510 159.259995 8.402927
v -2.976540 159.266006 8.402917
v -2.931570 159.259995 8.402927
v -2.889680 159.242996 8.402927
v -2.853700 159.214996 8.402927
v -2.826080 159.179001 8.402927
v -2.808730 159.136993 8.402927
v -2.924720 158.899002 8.406977
v -2.976540 158.891998 8.406977
v -3.149910 159.192001 8.406967
v -3.118100 159.233002 8.406967
v -2.876450 159.266006 8.406967
v -2.834980 159.233002 8.406967
v -2.803170 159.192001 8.406967
v -2.783180 159.143997 8.406977
v -3.028360 158.899002 8.406977
v -3.028360 159.285004 8.406967
v -2.976540 159.292007 8.406967
v -2.776350 159.091995 8.406977
v -2.783180 159.039993 8.406977
v -3.169900 159.039993 8.406977
v -3.176730 159.091995 8.406977
v -3.169900 159.143997 8.406977
v -2.803170 158.992004 8.406977
v -3.149910 158.992004 8.406977
v -2.834980 158.951004 8.406977
v -3.118100 158.951004 8.406977
v -2.876450 158.917999 8.406977
v -2.924720 159.285004 8.406967
v -3.076630 158.917999 8.406977
v -3.076630 159.266006 8.406967
v -2.976540 159.092026 8.402927
v 2.976540 159.091980 8.402926
vn 0.0384 0.1481 0.9882
vn 0.0267 0.1022 0.9944
vn -0.0000 0.1060 0.9944
vn -0.0000 0.1541 0.9881
vn -0.1308 -0.0761 0.9885
vn -0.0905 -0.0526 0.9945
vn -0.0750 -0.0743 0.9944
vn -0.1088 -0.1076 0.9882
vn 0.0757 -0.1316 0.9884
vn 0.0524 -0.0909 0.9945
vn 0.0748 -0.0740 0.9944
vn 0.1084 -0.1069 0.9883
vn 0.1316 -0.0766 0.9883
vn 0.0909 -0.0529 0.9945
vn 0.1010 -0.0271 0.9945
vn 0.1461 -0.0392 0.9885
vn -0.0269 0.1026 0.9944
vn -0.0388 0.1492 0.9880
vn -0.0382 -0.1477 0.9883
vn -0.0267 -0.1020 0.9944
vn -0.0000 -0.1059 0.9944
vn -0.0000 -0.1539 0.9881
vn 0.1512 -0.0000 0.9885
vn 0.1046 -0.0000 0.9945
vn 0.1010 0.0271 0.9945
vn 0.1459 0.0392 0.9885
vn -0.1463 0.0393 0.9885
vn -0.1011 0.0272 0.9945
vn -0.1046 -0.0000 0.9945
vn -0.1512 -0.0000 0.9885
vn -0.1010 -0.0271 0.9945
vn -0.1460 -0.0391 0.9885
vn 0.1011 -0.0271 0.9945
vn 0.0905 0.0527 0.9945
vn 0.1310 0.0763 0.9884
vn -0.1319 0.0769 0.9883
vn -0.0910 0.0530 0.9944
vn -0.1463 0.0394 0.9885
vn 0.0751 0.0744 0.9944
vn 0.1090 0.1079 0.9882
vn -0.1087 0.1072 0.9883
vn -0.0750 0.0741 0.9944
vn 0.1316 -0.0767 0.9883
vn 0.0763 0.1318 0.9883
vn 0.0527 0.0910 0.9945
vn 0.0269 -0.1025 0.9944
vn 0.0388 -0.1490 0.9881
vn -0.0525 0.0911 0.9945
vn -0.0759 0.1320 0.9883
vn -0.0761 -0.1314 0.9884
vn -0.0526 -0.0909 0.9945
vn 0.1091 0.1079 0.9882
vn -0.0760 0.1320 0.9883
vn -0.0395 0.1490 0.9881
vn 0.0001 0.1542 0.9880
vn -0.0270 0.1025 0.9944
vn 0.1320 -0.0762 0.9883
vn 0.1080 -0.1070 0.9884
vn 0.0747 -0.0740 0.9945
vn 0.0910 -0.0526 0.9945
vn -0.0762 -0.1316 0.9884
vn -0.1084 -0.1079 0.9882
vn -0.0748 -0.0743 0.9944
vn -0.1311 -0.0756 0.9885
vn -0.1460 -0.0390 0.9885
vn -0.1010 -0.0270 0.9945
vn -0.0906 -0.0524 0.9945
vn 0.0389 0.1478 0.9883
vn 0.0268 0.1021 0.9944
vn 0.0395 -0.1488 0.9881
vn 0.0271 -0.1024 0.9944
vn -0.1464 0.0392 0.9885
vn -0.1011 0.0271 0.9945
vn 0.1460 0.0390 0.9885
vn 0.1009 0.0270 0.9945
vn 0.1462 -0.0391 0.9885
vn 0.1011 -0.0270 0.9945
vn -0.1009 -0.0270 0.9945
vn -0.1323 0.0764 0.9883
vn -0.0911 0.0528 0.9944
vn 0.1312 0.0758 0.9885
vn 0.1010 0.0270 0.9945
vn 0.0907 0.0525 0.9945
vn -0.1083 0.1073 0.9883
vn -0.0748 0.0741 0.9944
vn 0.1087 0.1081 0.9882
vn 0.1312 0.0757 0.9885
vn 0.0906 0.0524 0.9945
vn 0.0749 0.0744 0.9944
vn 0.0910 -0.0527 0.9945
vn -0.1084 -0.1078 0.9882
vn -0.0760 0.1322 0.9883
vn -0.0390 -0.1473 0.9883
vn -0.0268 -0.1019 0.9944
vn 0.0765 0.1320 0.9883
vn 0.0527 0.0911 0.9945
vn 0.0268 0.1020 0.9944
vn 0.0758 -0.1318 0.9884
vn 0.0271 -0.1025 0.9944
vn 0.0524 -0.0910 0.9945
vn -0.0526 -0.0910 0.9945
vn 0.0764 0.1320 0.9883
vn 0.0527 0.0911 0.9944
vn -0.0000 -0.0000 1.0000
vn -0.0002 0.0001 1.0000
vn 0.0002 0.0001 1.0000
vt 0.739961 0.712318
vt 0.738424 0.706712
vt 0.750047 0.705141
vt 0.750047 0.710973
vt 0.783795 0.769515
vt 0.788934 0.772431
vt 0.781799 0.781627
vt 0.777600 0.777589
vt 0.730565 0.783869
vt 0.727597 0.789030
vt 0.718296 0.781627
vt 0.722494 0.777589
vt 0.716299 0.769515
vt 0.711161 0.772431
vt 0.706677 0.761664
vt 0.712408 0.760093
vt 0.761670 0.706712
vt 0.760134 0.712318
vt 0.760134 0.787682
vt 0.761670 0.793291
vt 0.750047 0.794862
vt 0.750047 0.789030
vt 0.711080 0.750000
vt 0.705145 0.750000
vt 0.706677 0.738336
vt 0.712408 0.739907
vt 0.787687 0.739907
vt 0.793418 0.738336
vt 0.794950 0.750000
vt 0.789015 0.750000
vt 0.793418 0.761664
vt 0.787687 0.760093
vt 0.711161 0.727572
vt 0.716299 0.730488
vt 0.783795 0.730488
vt 0.788934 0.727572
vt 0.718296 0.718376
vt 0.722494 0.722411
vt 0.777600 0.722411
vt 0.781799 0.718376
vt 0.730565 0.716131
vt 0.727597 0.710973
vt 0.738424 0.793291
vt 0.739961 0.787682
vt 0.772497 0.710973
vt 0.769530 0.716131
vt 0.769530 0.783869
vt 0.772497 0.789030
vt 0.260073 0.712318
vt 0.249987 0.710973
vt 0.249987 0.705141
vt 0.261610 0.706712
vt 0.216239 0.769515
vt 0.222434 0.777589
vt 0.218235 0.781627
vt 0.211100 0.772431
vt 0.269469 0.783869
vt 0.277539 0.777589
vt 0.281738 0.781627
vt 0.272437 0.789030
vt 0.283735 0.769515
vt 0.287626 0.760093
vt 0.293357 0.761664
vt 0.288873 0.772431
vt 0.239900 0.712318
vt 0.238364 0.706712
vt 0.239900 0.787682
vt 0.249987 0.789030
vt 0.249987 0.794862
vt 0.238364 0.793291
vt 0.288954 0.750000
vt 0.287626 0.739907
vt 0.293357 0.738336
vt 0.294889 0.750000
vt 0.212347 0.739907
vt 0.211019 0.750000
vt 0.205084 0.750000
vt 0.206616 0.738336
vt 0.212347 0.760093
vt 0.206616 0.761664
vt 0.283735 0.730488
vt 0.288873 0.727572
vt 0.216239 0.730488
vt 0.211100 0.727572
vt 0.277539 0.722411
vt 0.281738 0.718376
vt 0.222434 0.722411
vt 0.218235 0.718376
vt 0.269469 0.716131
vt 0.272437 0.710973
vt 0.260073 0.787682
vt 0.261610 0.793291
vt 0.230504 0.716131
vt 0.227536 0.710973
vt 0.230504 0.783869
vt 0.227536 0.789030
vt 0.000000 0.000000
s 0
usemtl Eye_Left
f 6/1/1 25/2/2 26/3/3 7/4/4
f 15/5/5 27/6/6 28/7/7 16/8/8
f 21/9/9 29/10/10 30/11/11 22/12/12
f 23/13/13 31/14/14 32/15/15 24/16/16
f 7/4/4 26/3/3 33/17/17 8/18/18
f 18/19/19 34/20/20 35/21/21 19/22/22
f 1/23/23 36/24/24 37/25/25 2/26/26
f 12/27/27 38/28/28 39/29/29 13/30/30
f 13/30/30 39/29/29 40/31/31 14/32/32
f 24/16/16 32/15/33 36/24/24 1/23/23
f 2/26/26 37/25/25 41/33/34 3/34/35
f 11/35/36 42/36/37 38/28/28 12/27/38
f 3/34/35 41/33/34 43/37/39 4/38/40
f 10/39/41 44/40/42 42/36/37 11/35/36
f 14/32/32 40/31/31 27/6/6 15/5/5
f 22/12/12 30/11/11 31/14/14 23/13/43
f 5/41/44 45/42/45 25/2/2 6/1/1
f 19/22/22 35/21/21 46/43/46 20/44/47
f 8/18/18 33/17/17 47/45/48 9/46/49
f 17/47/50 48/48/51 34/20/20 18/19/19
f 4/38/52 43/37/39 45/42/45 5/41/44
f 20/44/47 46/43/46 29/10/10 21/9/9
f 9/46/53 47/45/48 44/40/42 10/39/41
f 16/8/8 28/7/7 48/48/51 17/47/50
f 6/97/104 7/97/104 98/97/104
f 7/97/104 8/97/104 98/97/104
f 8/97/104 9/97/104 98/97/104
f 9/97/104 10/97/104 98/97/104
f 10/97/104 11/97/104 98/97/104
f 11/97/104 12/97/104 98/97/104
f 12/97/104 13/97/104 98/97/104
f 13/97/104 14/97/104 98/97/104
f 14/97/104 15/97/104 98/97/104
f 15/97/104 16/97/104 98/97/104
f 16/97/104 17/97/104 98/97/104
f 17/97/104 18/97/104 98/97/104
f 18/97/105 19/97/105 98/97/105
f 19/97/106 20/97/106 98/97/106
f 20/97/104 21/97/104 98/97/104
f 21/97/104 22/97/104 98/97/104
f 22/97/104 23/97/104 98/97/104
f 23/97/104 24/97/104 98/97/104
f 24/97/104 1/97/104 98/97/104
f 1/97/104 2/97/104 98/97/104
f 2/97/104 3/97/104 98/97/104
f 3/97/104 4/97/104 98/97/104
f 4/97/104 5/97/104 98/97/104
f 5/97/104 6/97/104 98/97/104
usemtl Eye_Right
f 54/49/54 55/50/55 74/51/3 73/52/56
f 63/53/57 64/54/58 76/55/59 75/56/60
f 69/57/61 70/58/62 78/59/63 77/60/51
f 71/61/64 72/62/65 80/63/66 79/64/67
f 55/50/55 56/65/68 81/66/69 74/51/3
f 66/67/70 67/68/22 83/69/21 82/70/71
f 49/71/30 50/72/72 85/73/73 84/74/29
f 60/75/74 61/76/23 87/77/24 86/78/75
f 61/76/23 62/79/76 88/80/77 87/77/24
f 72/62/65 49/71/30 84/74/29 80/63/78
f 50/72/72 51/81/79 89/82/80 85/73/73
f 59/83/81 60/75/74 86/78/82 90/84/83
f 51/81/79 52/85/84 91/86/85 89/82/80
f 58/87/86 59/83/87 90/84/88 92/88/89
f 62/79/76 63/53/57 75/56/90 88/80/77
f 70/58/91 71/61/64 79/64/67 78/59/63
f 53/89/92 54/49/54 73/52/56 93/90/48
f 67/68/22 68/91/93 94/92/94 83/69/21
f 56/65/68 57/93/95 95/94/96 81/66/97
f 65/95/98 66/67/70 82/70/99 96/96/100
f 52/85/84 53/89/92 93/90/48 91/86/85
f 68/91/93 69/57/61 77/60/101 94/92/94
f 57/93/102 58/87/86 92/88/89 95/94/103
f 64/54/58 65/95/98 96/96/100 76/55/59
f 51/97/104 50/97/104 97/97/104
f 50/97/104 49/97/104 97/97/104
f 49/97/104 72/97/104 97/97/104
f 72/97/104 71/97/104 97/97/104
f 71/97/104 70/97/104 97/97/104
f 70/97/104 69/97/104 97/97/104
f 69/97/104 68/97/104 97/97/104
f 68/97/105 67/97/105 97/97/105
f 67/97/106 66/97/106 97/97/106
f 66/97/104 65/97/104 97/97/104
f 65/97/104 64/97/104 97/97/104
f 64/97/104 63/97/104 97/97/104
f 63/97/104 62/97/104 97/97/104
f 62/97/104 61/97/104 97/97/104
f 61/97/104 60/97/104 97/97/104
f 60/97/104 59/97/104 97/97/104
f 59/97/104 58/97/104 97/97/104
f 58/97/104 57/97/104 97/97/104
f 57/97/104 56/97/104 97/97/104
f 56/97/104 55/97/104 97/97/104
f 55/97/104 54/97/104 97/97/104
f 54/97/104 53/97/104 97/97/104
f 53/97/104 52/97/104 97/97/104
f 52/97/104 51/97/104 97/97/104
