# Blender 3.6.8
# www.blender.org
mtllib mouth_geograft_2.mtl
o make_mouth_geograft
v 0.000000 151.450394 3.983757
v 0.231238 151.478806 3.976269
v 0.000000 151.643494 4.069541
v 0.275628 151.680893 4.022685
v -0.231238 151.478806 3.976269
v -0.275628 151.680893 4.022685
vn -0.0321 0.3643 -0.9307
vn -0.2063 0.3425 -0.9166
vn -0.1900 0.2605 -0.9466
vn -0.0165 0.2671 -0.9635
vn -0.0164 0.2670 -0.9635
vn 0.1463 0.2773 -0.9496
vn 0.1559 0.3640 -0.9183
vt 0.499956 0.792151
vt 0.517090 0.791464
vt 0.514127 0.802287
vt 0.499956 0.803524
vt 0.485785 0.802287
vt 0.482822 0.791464
s 0
usemtl Mouth
f 3/1/1 4/2/2 2/3/3 1/4/4
f 3/1/1 1/4/5 5/5/6 6/6/7
